<svg xmlns="http://www.w3.org/2000/svg" viewBox="0 0 16 16">
  <title>icon-mask</title>
  <path d="M2.229,1.531a.656.656,0,0,1,.465.19l11.59,11.591a.663.663,0,0,1,0,.929l-.037.038a.664.664,0,0,1-.93,0L1.726,2.688a.667.667,0,0,1,0-.929l.038-.038a.657.657,0,0,1,.465-.19m0-1.5A2.151,2.151,0,0,0,.7.66L.666.7a2.164,2.164,0,0,0,0,3.051L12.256,15.34a2.164,2.164,0,0,0,3.051,0l.038-.038a2.164,2.164,0,0,0,0-3.051L3.754.66A2.151,2.151,0,0,0,2.229.031Z"/>
  <rect x="1.915" y="-0.735" width="4.368" height="9.657" rx="2.157" ry="2.157" transform="translate(-1.694 4.097) rotate(-45)"/>
  <line x1="4.738" y1="9.163" x2="9.168" y2="4.733" fill="none" stroke="#000" stroke-linecap="round" stroke-linejoin="round" stroke-width="2"/>
</svg>
