<svg xmlns="http://www.w3.org/2000/svg" xmlns:xlink="http://www.w3.org/1999/xlink" viewBox="0 0 36 36">
  <defs>
    <linearGradient id="a" x1="18" y1="1.905" x2="18" y2="37.85" gradientTransform="matrix(1, 0, 0, -1, 0, 38)" gradientUnits="userSpaceOnUse">
      <stop offset="0" stop-color="#3d3f58"/>
      <stop offset="1" stop-color="#777e92"/>
    </linearGradient>
  </defs>
  <title>icon</title>
  <circle cx="18" cy="18" r="18" fill="url(#a)"/>
  <g>
    <path d="M10.716,10.278a1.082,1.082,0,0,1,.771.316L25.192,24.3a1.091,1.091,0,0,1-1.543,1.542l-13.7-13.7a1.088,1.088,0,0,1,.772-1.859m0-1.5a2.586,2.586,0,0,0-1.832.755h0a2.6,2.6,0,0,0,0,3.664L22.588,26.9a2.6,2.6,0,0,0,3.664,0h0a2.6,2.6,0,0,0,0-3.664l-13.7-13.7a2.586,2.586,0,0,0-1.832-.755Z" fill="#fff"/>
    <rect x="10.343" y="7.856" width="5.182" height="11.456" rx="2.591" ry="2.591" transform="translate(-5.817 13.124) rotate(-45)" fill="#fff"/>
    <line x1="13.692" y1="19.597" x2="18.947" y2="14.342" fill="none" stroke="#fff" stroke-linecap="round" stroke-linejoin="round" stroke-width="2"/>
  </g>
</svg>
